<svg width="1440" height="1024" viewBox="0 0 1440 1024" xmlns="http://www.w3.org/2000/svg">
	<rect width="1440" height="1024" fill="#F1F1F1" />
	<g filter="url(#filter0_d_5_2)">
		<path d="M47.6342 444V356.182H78.3363C84.4538 356.182 89.4994 357.24 93.4729 359.355C97.4465 361.442 100.405 364.258 102.349 367.802C104.293 371.318 105.265 375.221 105.265 379.509C105.265 383.282 104.593 386.398 103.25 388.856C101.935 391.315 100.191 393.259 98.0182 394.688C95.8742 396.117 93.5444 397.175 91.0288 397.861V398.719C93.7159 398.89 96.4173 399.834 99.1331 401.549C101.849 403.264 104.121 405.722 105.951 408.924C107.781 412.126 108.695 416.042 108.695 420.673C108.695 425.076 107.695 429.035 105.694 432.551C103.693 436.067 100.534 438.854 96.2172 440.913C91.9007 442.971 86.2834 444 79.3654 444H47.6342ZM58.2685 434.566H79.3654C86.312 434.566 91.2432 433.223 94.159 430.536C97.1034 427.82 98.5756 424.532 98.5756 420.673C98.5756 417.7 97.8181 414.956 96.303 412.44C94.7879 409.896 92.6296 407.866 89.8281 406.351C87.0266 404.808 83.7106 404.036 79.88 404.036H58.2685V434.566ZM58.2685 394.774H77.9933C81.195 394.774 84.0822 394.145 86.655 392.887C89.2564 391.629 91.3146 389.857 92.8297 387.57C94.3734 385.283 95.1452 382.596 95.1452 379.509C95.1452 375.649 93.8017 372.376 91.1145 369.689C88.4274 366.973 84.168 365.615 78.3363 365.615H58.2685V394.774ZM129.771 444H118.622L150.868 356.182H161.845L194.091 444H182.942L156.699 370.075H156.013L129.771 444ZM133.887 409.696H178.826V419.13H133.887V409.696ZM207.769 444V356.182H218.404V434.566H259.225V444H207.769ZM284.836 444H273.687L305.932 356.182H316.91L349.155 444H338.007L311.764 370.075H311.078L284.836 444ZM288.952 409.696H333.89V419.13H288.952V409.696ZM432.471 356.182V444H422.18L374.326 375.049H373.468V444H362.834V356.182H373.125L421.151 425.304H422.009V356.182H432.471ZM524.417 383.625H513.782C513.154 380.566 512.053 377.879 510.481 375.564C508.937 373.248 507.05 371.304 504.82 369.732C502.619 368.131 500.175 366.93 497.488 366.13C494.801 365.33 491.999 364.929 489.084 364.929C483.766 364.929 478.95 366.273 474.633 368.96C470.345 371.647 466.929 375.606 464.385 380.838C461.869 386.069 460.611 392.487 460.611 400.091C460.611 407.695 461.869 414.113 464.385 419.344C466.929 424.575 470.345 428.535 474.633 431.222C478.95 433.909 483.766 435.252 489.084 435.252C491.999 435.252 494.801 434.852 497.488 434.052C500.175 433.251 502.619 432.065 504.82 430.493C507.05 428.892 508.937 426.934 510.481 424.618C512.053 422.274 513.154 419.587 513.782 416.557H524.417C523.616 421.045 522.158 425.061 520.043 428.606C517.927 432.151 515.298 435.167 512.153 437.654C509.008 440.112 505.478 441.985 501.562 443.271C497.674 444.557 493.514 445.201 489.084 445.201C481.594 445.201 474.933 443.371 469.101 439.712C463.27 436.053 458.682 430.85 455.337 424.104C451.992 417.357 450.32 409.353 450.32 400.091C450.32 390.829 451.992 382.825 455.337 376.078C458.682 369.332 463.27 364.129 469.101 360.47C474.933 356.811 481.594 354.981 489.084 354.981C493.514 354.981 497.674 355.624 501.562 356.911C505.478 358.197 509.008 360.084 512.153 362.571C515.298 365.029 517.927 368.031 520.043 371.576C522.158 375.092 523.616 379.108 524.417 383.625ZM541.601 444V356.182H594.6V365.615H552.235V395.288H591.856V404.722H552.235V434.566H595.287V444H541.601Z" fill="black" />
	</g>
	<path fill-rule="evenodd" clip-rule="evenodd" d="M37 516V657.846H79.7435V586.779H149.428V657.846H192.085V481H149.428V551.98H79.7435V516H37ZM368.543 481H325.886V591.356C325.886 597.458 324.533 602.898 321.827 607.676C319.121 612.454 315.351 616.196 310.515 618.902C305.737 621.607 300.153 622.96 293.763 622.96C287.373 622.96 281.76 621.607 276.925 618.902C272.089 616.196 268.319 612.454 265.613 607.676C262.965 602.898 261.641 597.458 261.641 591.356V481H218.897V595.069C218.897 608.252 222.006 619.736 228.223 629.523C234.44 639.252 243.162 646.793 254.387 652.147C265.613 657.443 278.738 660.091 293.763 660.091C308.615 660.091 321.654 657.443 332.88 652.147C344.105 646.793 352.856 639.252 359.13 629.523C365.405 619.736 368.543 608.252 368.543 595.069V481ZM448.266 481H395.333V657.846H436.954V548.612H438.422L480.906 656.723H507.502L549.987 549.217H551.455V657.846H593.076V481H540.143L495.24 590.492H493.168L448.266 481ZM979.213 657.846V481H936.556V582.894H935.088L865.49 481H828.704V657.846H871.448V555.78H872.57L942.946 657.846H979.213ZM1048.83 657.846V481H1006.09V657.846H1048.83ZM1069.88 481V515.713H1123.59V657.846H1165.73V515.713H1219.35V481H1069.88ZM1279.17 481H1231.42L1296.1 598.782V657.846H1338.58V598.782L1403.26 481H1355.51L1318.12 555.002H1316.56L1279.17 481Z" fill="black" />
	<path d="M699.593 485.84V492.719V493.248C691.915 495.629 675.006 501.184 668.795 504.359C662.583 507.534 659.823 513.442 659.219 515.999L657.407 525.788C655.595 542.102 651.972 575.788 651.972 580.021C651.972 584.254 655.423 591.132 657.148 594.042C659.391 597.481 663.722 604.465 663.101 604.889C662.324 605.418 622.209 618.381 616.515 629.492C611.96 638.381 614.617 646.6 616.515 649.598C618.499 651.714 623.762 656.317 628.938 657.799C634.114 659.915 649.384 660.18 654.819 659.915C659.167 659.704 671.641 658.416 677.335 657.799C683.547 656.917 698.247 654.889 707.357 653.831C716.467 652.772 739.795 656.564 750.319 658.593C759.464 659.563 780.393 660.921 790.953 658.593C801.512 656.265 806.567 650.568 807.775 648.011C808.379 647.129 809.432 643.037 808.81 633.725C808.189 624.413 797.336 617.675 791.988 615.471C781.549 611.767 760.62 604.254 760.413 603.83C760.154 603.301 768.954 588.751 770.507 584.518C771.749 581.132 772.059 578.169 772.059 577.111V574.201C770.334 556.035 766.055 518.274 762.742 512.56C761.5 507.269 752.39 502.948 747.99 501.449L723.662 492.719V485.311C725.56 484.341 729.77 481.396 731.426 477.375C733.704 482.243 735.826 479.579 736.603 477.639C736.861 476.317 737.483 473.354 737.897 472.084C738.311 470.814 738.759 468.909 738.932 468.115L740.485 460.973L740.744 455.682C740.485 453.83 739.346 450.126 736.861 450.126C737.275 442.93 736.171 436.546 735.567 434.253C734.446 431.696 730.909 425.787 725.733 422.613C725.733 419.65 724.697 416.263 724.18 414.941C723.49 413.618 721.126 410.443 717.192 408.327C713.258 406.21 708.996 407.092 707.357 407.798C703.475 410.179 696.125 416.475 697.781 422.613C690.276 428.433 688.982 432.666 687.688 435.84C686.394 439.015 686.135 446.158 686.394 450.126C684.323 451.184 684.323 451.713 683.805 452.242C683.288 452.771 683.029 454.359 683.029 455.152C683.029 455.946 683.288 460.973 683.547 463.089C683.754 464.782 684.323 466.969 684.582 467.851L686.394 476.317C686.825 478.609 688.619 482.137 692.346 477.904C693.796 481.713 697.781 484.782 699.593 485.84Z" fill="#190202" stroke="black" />
	<rect x="37" y="679" width="1311" height="25" fill="#111010" />
	<defs>
		<filter id="filter0_d_5_2" x="43.6342" y="354.981" width="555.652" height="98.2195" filterUnits="userSpaceOnUse" color-interpolation-filters="sRGB">
			<feFlood flood-opacity="0" result="BackgroundImageFix" />
			<feColorMatrix in="SourceAlpha" type="matrix" values="0 0 0 0 0 0 0 0 0 0 0 0 0 0 0 0 0 0 127 0" result="hardAlpha" />
			<feOffset dy="4" />
			<feGaussianBlur stdDeviation="2" />
			<feComposite in2="hardAlpha" operator="out" />
			<feColorMatrix type="matrix" values="0 0 0 0 0 0 0 0 0 0 0 0 0 0 0 0 0 0 0.25 0" />
			<feBlend mode="normal" in2="BackgroundImageFix" result="effect1_dropShadow_5_2" />
			<feBlend mode="normal" in="SourceGraphic" in2="effect1_dropShadow_5_2" result="shape" />
		</filter>
	</defs>
</svg>
